<svg id="Layer_1" data-name="Layer 1" xmlns="http://www.w3.org/2000/svg" viewBox="0 0 201.97 134.33"><defs><style>.cls-1{fill:#b40101;}</style></defs><title>kw-red-letters2</title><polygon class="cls-1" points="0 0 0 133.63 18.65 133.63 18.65 102.29 32.32 88.69 51.34 133.63 70.23 133.63 45.11 74.01 62.74 54.48 96.93 133.63 104.11 133.63 129.76 72.41 155.83 133.63 162.9 133.63 201.97 43.51 182.84 43.51 159.32 98.19 136.52 43.51 123.32 43.51 100.32 98.19 76.67 43.51 51.87 43.51 18.65 76.67 18.65 0 0 0"/><path class="cls-1" d="M263.74,229v-2.13h0.63a1.07,1.07,0,0,1,1.33,1,1.1,1.1,0,0,1-1.33,1.11h-0.63Zm3.4,3.79-1.25-3.16a1.84,1.84,0,0,0,.81-1.7,1.91,1.91,0,0,0-2.21-1.89h-1.71v6.75h1v-3h1.16l1.22,3h1Z" transform="translate(-78.39 -101.1)"/><path class="cls-1" d="M264.77,224a5.34,5.34,0,1,0,5.33,5.35,5.37,5.37,0,0,0-5.33-5.35m0,11.47a6.13,6.13,0,1,1,6.13-6.13,6.14,6.14,0,0,1-6.13,6.13" transform="translate(-78.39 -101.1)"/></svg>