<?xml version="1.0" encoding="utf-8"?>
<!-- Generator: Adobe Illustrator 19.2.0, SVG Export Plug-In . SVG Version: 6.00 Build 0)  -->
<svg version="1.1" id="Layer_1" xmlns="http://www.w3.org/2000/svg" xmlns:xlink="http://www.w3.org/1999/xlink" x="0px" y="0px"
	 viewBox="0 0 360 360" style="enable-background:new 0 0 360 360;" xml:space="preserve">
<style type="text/css">
	.st0{fill:#B40101;}
</style>
<polygon class="st0" points="78.4,101.1 78.4,234.7 97,234.7 97,203.4 110.7,189.8 129.7,234.7 148.6,234.7 123.5,175.1 
	141.1,155.6 175.3,234.7 182.5,234.7 208.2,173.5 234.2,234.7 241.3,234.7 280.4,144.6 261.2,144.6 237.7,199.3 214.9,144.6 
	201.7,144.6 178.7,199.3 155.1,144.6 130.3,144.6 97,177.8 97,101.1 "/>
<g>
	<path class="st0" d="M263.7,229v-2.1h0.6c0.9,0,1.3,0.4,1.3,1c0,0.6-0.3,1.1-1.3,1.1H263.7z M267.1,232.8l-1.2-3.2
		c0.7-0.6,0.8-1,0.8-1.7c0-1.2-0.8-1.9-2.2-1.9h-1.7v6.8h1v-3h1.2l1.2,3H267.1z"/>
	<path class="st0" d="M264.8,224c-3,0-5.4,2.4-5.4,5.3c0,3,2.4,5.3,5.4,5.3c2.9,0,5.3-2.4,5.3-5.3C270.1,226.4,267.7,224,264.8,224
		 M264.8,235.4c-3.4,0-6.1-2.7-6.1-6.1c0-3.4,2.8-6.1,6.1-6.1c3.4,0,6.1,2.7,6.1,6.1C270.9,232.7,268.1,235.4,264.8,235.4"/>
</g>
</svg>
